Coordinates
version=1
nRows=8
nColumns=36
inDegrees=yes

Units are S.I. units (second, meters, Newtons, ...)
If the header above contains a line with 'inDegrees', this indicates whether rotational values are in degrees (yes) or radians (no).

endheader
time	pelvis_tilt	pelvis_list	pelvis_rotation	pelvis_tx	pelvis_ty	pelvis_tz	hip_flexion_r	hip_adduction_r	hip_rotation_r	knee_angle_r	knee_angle_r_beta	ankle_angle_r	subtalar_angle_r	mtp_angle_r	hip_flexion_l	hip_adduction_l	hip_rotation_l	knee_angle_l	knee_angle_l_beta	ankle_angle_l	subtalar_angle_l	mtp_angle_l	lumbar_extension	lumbar_bending	lumbar_rotation	arm_flex_r	arm_add_r	arm_rot_r	elbow_flex_r	pro_sup_r	arm_flex_l	arm_add_l	arm_rot_l	elbow_flex_l	pro_sup_l
      5.65000000	      2.29051063	     -6.66919809	     -8.75046336	      0.84255352	      1.00701514	     -0.01814743	     42.26120779	     12.36956252	      0.58958916	    121.39903369	      2.11881285	    -10.42228564	    -31.01326488	     -7.49999987	     14.23213986	     -7.75771652	     -7.96611532	     31.93020688	      0.55728724	     16.35188660	      4.55443211	     -7.49999987	    -19.24683224	      3.64727158	      1.11548515	    -29.76469732	    -22.73674638	      4.85172789	     78.39635010	     78.31027080	     34.96624011	     -7.54174056	     14.40870643	    113.91712515	     81.76258835
      5.66666670	      2.71702528	     -6.53026308	     -8.80223517	      0.84069822	      1.00623509	     -0.01559850	     42.26697921	     13.33856332	      1.54921899	    124.61448496	      2.17493306	     -8.95729242	    -29.99917236	     -7.49999987	     15.37551377	     -8.17671368	     -8.61472021	     34.77820361	      0.60699416	     17.20527046	      6.03436747	     -7.49999987	    -19.77709652	      2.70314612	      0.09844710	    -29.85568800	    -23.67862364	      5.61403152	     78.70806674	     80.08174344	     38.84513093	     -7.42919513	     12.77151342	    114.14826941	     82.30091296
      5.68333330	      3.13691299	     -6.32113323	     -8.71206811	      0.84306620	      1.00469878	     -0.01985694	     41.72898247	     13.82989946	      2.68067204	    126.10517483	      2.20095050	     -7.17147478	    -29.53560741	     -7.49999987	     16.08301745	     -8.21073906	     -8.90170884	     36.92823872	      0.64451935	     17.20043147	      6.72751895	     -7.49999987	    -20.00463231	      1.73451030	     -1.16783724	    -30.48211975	    -24.67593969	      5.99746696	     79.12695724	     91.61456836	     40.94026222	     -7.11194430	     11.61476188	    115.13001369	     86.14336918
      5.70000000	      3.20635343	     -5.93672574	     -8.46664260	      0.84342017	      1.00143537	     -0.02137087	     41.76709951	     13.82597010	      3.95657038	    126.87006706	      2.21430039	     -6.58951085	    -29.04813231	     -7.49999987	     16.60100749	     -7.84715768	     -8.77281987	     38.09104156	      0.66481409	     17.64643385	      7.52578742	     -7.49999987	    -19.65862592	      0.82777455	     -1.58830029	    -32.23226585	    -25.30301569	      6.27082470	     81.18445276	     91.17298899	     43.17104406	     -5.72828119	     11.49564248	    115.32362668	     85.48093150
      5.71666670	      3.53331459	     -5.55543625	     -8.01454908	      0.84418367	      1.00471193	     -0.01958983	     41.18077502	     13.50877723	      4.82143855	    125.82304361	      2.19602639	     -6.13353019	    -28.53185613	     -7.49999987	     16.28618836	     -7.28866542	     -8.48831719	     38.13239320	      0.66553581	     17.36535671	      8.08988360	     -7.49999987	    -19.51664871	      0.06161339	     -2.13029658	    -33.68300449	    -25.14676860	      6.12685439	     83.32549793	     88.68309363	     43.85044714	     -4.85567567	     11.64957209	    115.92319036	     82.93015238
      5.73333330	      3.57834434	     -5.19504599	     -7.47978234	      0.84713538	      1.00499815	     -0.01931158	     40.42183661	     13.14515469	      5.73764076	    123.60296455	      2.15727870	     -5.62424127	    -27.47976134	     -7.49999987	     15.81485249	     -6.73740776	     -8.11521016	     37.56450568	      0.65562431	     16.97849490	      8.53427019	     -7.49999987	    -18.88421551	     -0.40637894	     -2.39270129	    -34.20768374	    -24.73700081	      5.70453171	     84.85172803	     96.55689893	     43.18221229	     -3.93605569	     11.48749413	    116.66671492	     85.70320142
      5.75000000	      3.20703178	     -4.95941354	     -7.19850070	      0.84791325	      1.00968148	     -0.02065649	     39.58129327	     12.61979676	      6.39557088	    119.45984695	      2.08496765	     -5.25774366	    -26.77598214	     -7.49999987	     15.37332560	     -6.26509789	     -7.86622426	     36.14679032	      0.63088051	     16.24031904	      8.86343368	     -7.49999987	    -17.63855054	     -0.67591418	     -2.13920616	    -34.02031214	    -24.12956452	      6.05352826	     85.84493115	     96.33456193	     41.16383200	     -3.24264512	     12.09986660	    116.87692824	     85.59015099
      5.76666670	      3.82845002	     -5.05296020	     -6.90605226	      0.85028463	      1.02035218	     -0.02193502	     36.80698431	     12.20218794	      6.65670949	    112.95200571	      1.97138440	     -6.60961388	    -26.75481349	     -7.49999987	     12.90570284	     -5.90516629	     -7.93663988	     32.87387063	      0.57375728	     14.29176305	      9.54292890	     -7.49999987	    -17.84149431	     -0.30299406	     -2.39472940	    -31.99672744	    -25.07563388	      8.49420564	     87.73160400	     94.07751751	     37.65977899	     -3.25371728	     11.36849994	    118.43145472	     83.57324802
